<svg id="Camada_1" data-name="Camada 1" xmlns="http://www.w3.org/2000/svg" viewBox="0 0 397.38 209.42"><path d="M334.4,47.17a21.39,21.39,0,0,0-12.2-3.4c-6.9,0-12.5,2.6-16.6,7.8v-39H286.2v110.8c-.2,3.2-1.4,6.1-5,7a21.48,21.48,0,0,0,3.3,42.7,21.21,21.21,0,0,0,13.9-5.1h0l.2-.2,1.5-1.5a4.09,4.09,0,0,1,2.6-1.1,4.26,4.26,0,0,1,3.3,1.2,20.72,20.72,0,0,0,16.1,7.1h.8a21.15,21.15,0,0,0,11.6-3.3,18.4,18.4,0,0,0,6.8-7.5c1.2-2.6,1.8-7,1.9-13.2V68.77c0-6.7-.7-11.4-2-14.2A18.92,18.92,0,0,0,334.4,47.17Zm-49.9,115.5a11.05,11.05,0,1,1,11-11.1A11,11,0,0,1,284.5,162.67Zm39.3-23.5v7.4a7.54,7.54,0,0,1-2.4,5.8,8.67,8.67,0,0,1-7.7,2.2c-2.8-.4-6-2.4-8.2-6.1v-80c2.6-3.4,5.3-5.4,8.2-5.8a8.67,8.67,0,0,1,7.7,2.2,7.54,7.54,0,0,1,2.4,5.8Z"/><path d="M372.4,51.37v-6.8H353.2v127.9h19.2V68.37c2.8-3.4,5.7-5.4,8.6-5.8a9.8,9.8,0,0,1,8.2,2.2V43.37A20.66,20.66,0,0,0,372.4,51.37Z"/><path d="M66.3,143.47A28.16,28.16,0,0,1,57.9,164a27.42,27.42,0,0,1-20.3,8.5,28.78,28.78,0,0,1-20.7-8.4,27.3,27.3,0,0,1-8.7-20.4V70.47a27.48,27.48,0,0,1,8.5-20.4,28.16,28.16,0,0,1,20.5-8.4,28,28,0,0,1,20.5,8.4,27.48,27.48,0,0,1,8.5,20.4v45.8H46.9V70.17a9.56,9.56,0,0,0-9.5-9.4,9.35,9.35,0,0,0-6.9,2.8,9,9,0,0,0-2.8,6.6v73.9a8.7,8.7,0,0,0,2.8,6.6,9.35,9.35,0,0,0,6.9,2.8,9.56,9.56,0,0,0,9.5-9.5v-7.2H66.2v6.7Z"/><path d="M135.1,143.47a28.47,28.47,0,0,1-8.3,20.5,27.42,27.42,0,0,1-20.3,8.5,28.68,28.68,0,0,1-20.8-8.4,27.58,27.58,0,0,1-8.6-20.4V70.47a27.64,27.64,0,0,1,8.5-20.4,28.16,28.16,0,0,1,20.5-8.4,27.7,27.7,0,0,1,20.5,8.5,27.64,27.64,0,0,1,8.5,20.4v53.7H96.4v19.8a9,9,0,0,0,2.8,6.6,9.47,9.47,0,0,0,6.7,2.8,9.35,9.35,0,0,0,6.9-2.8,9.07,9.07,0,0,0,2.8-6.7v-7.2h19.3v6.7Zm-19.4-37.6V70a9,9,0,0,0-2.8-6.6,9.35,9.35,0,0,0-6.9-2.8A9.56,9.56,0,0,0,96.5,70v35.9Z"/><path d="M182,63a9.6,9.6,0,0,0-8.3-2.2c-3,.4-5.9,2.4-8.7,5.9v104.9H145.6V42.37H165v7.1q6.45-7.8,17.1-7.8V63Z"/><path d="M251.1,143.67a30,30,0,0,1-7.4,20.5c-5,5.6-11.4,8.3-19.2,8.3a25,25,0,0,1-19.3-8.3,29.7,29.7,0,0,1-7.6-20.5v-82h-7.9V44h7.9V25.27h19.3V44H250v17.7H216.9v82.4c0,6.3,2.5,9.5,7.5,9.5,4.8,0,7.3-3.2,7.3-9.4V98.07H251v45.6Z"/></svg>