<svg xmlns="http://www.w3.org/2000/svg" viewBox="0 0 100 100"><path fill="#00ADBC" d="M22.3,77.7a39.1,39.1,0,0,1,55.4,0,39.1,39.1,0,0,1-55.4,0"/><path fill="none" stroke="#FFF" stroke-width="4.5" d="M37.3,62.7a17.8,17.8,0,0,1,25.4,0"/><path fill="#FFF" d="M60.4,47.4a2.3,2.3,0,1,1-2.3-2.3,2.3,2.3,0,0,1,2.3,2.3"/><path fill="#00ADBC" d="M77.7,22.3a39.1,39.1,0,0,1,0,55.4,39.1,39.1,0,0,1,0-55.4"/><path fill="none" stroke="#FFF" stroke-width="4.5" d="M62.7,37.3a17.8,17.8,0,0,1,0,25.4"/><path fill="#FFF" d="M47.4,39.6a2.3,2.3,0,1,1-2.3,2.3,2.3,2.3,0,0,1,2.3-2.3"/><path fill="#00ADBC" d="M22.3,22.3a39.1,39.1,0,0,1,55.4,0,39.1,39.1,0,0,1-55.4,0"/><path fill="none" stroke="#FFF" stroke-width="4.5" d="M37.3,37.3a17.8,17.8,0,0,1,25.4,0"/><path fill="#FFF" d="M39.6,52.6a2.3,2.3,0,1,1,2.3,2.3,2.3,2.3,0,0,1-2.3-2.3"/><path fill="#00ADBC" d="M22.3,77.7a39.1,39.1,0,0,1,0-55.4,39.1,39.1,0,0,1,0,55.4"/><path fill="none" stroke="#FFF" stroke-width="4.5" d="M37.3,62.7a17.8,17.8,0,0,1,0-25.4"/><path fill="#FFF" d="M52.6,60.4a2.3,2.3,0,1,1,2.3-2.3,2.3,2.3,0,0,1-2.3,2.3"/></svg>