<svg xmlns="http://www.w3.org/2000/svg" viewBox="0 0 256 256"><path d="M224 80a8 8 0 01-8 8h-4.32l-21.74 38.16a8 8 0 01-13.88 0L154.32 88H120a8 8 0 010-16h36.25l24.7-43.23a8 8 0 0113.88 8L173.68 80H216a8 8 0 018 8zM96.25 28.77l24.7-43.23a8 8 0 0113.88 8L113.68 80H120a8 8 0 010 16H81.68l-21.74 38.16a8 8 0 01-13.88 0L24.32 88H16a8 8 0 010-16h36.25l24.7-43.23a8 8 0 0119.33 0z" fill="#f9a825"/><path d="M24.32 168H16a8 8 0 000 16h36.25l24.7 43.23a8 8 0 0013.88-8L69.68 176H120a8 8 0 000-16H81.68l-21.74-38.16a8 8 0 00-13.88 0l-21.74 38.16z" fill="#4caf50"/><path d="M113.68 176L88.93 219.23a8 8 0 0013.88 8l24.7-43.23H152.25a8 8 0 000-16h-36.25l-21.74-38.16a8 8 0 00-13.88 0L59.68 176H16a8 8 0 000 16h43.68z" fill="#2196f3"/><path d="M154.32 88l-21.74 38.16a8 8 0 0013.88 8L168.21 96h29.54a8 8 0 000-16h-29.54l-21.74-38.16a8 8 0 00-13.88 0l-10.37 18.16 23.36 40.84a8 8 0 0013.88 0z" fill="#ff5722"/><path d="M173.68 176l-24.75 43.23a8 8 0 0013.88 8L184.21 184h29.54a8 8 0 000-16h-29.54L162.32 128a8 8 0 00-13.88 0l-21.74 38.16L173.68 176z" fill="#e91e63"/></svg>